<svg id="visual" viewBox="0 0 900 600" width="900" height="600" xmlns="http://www.w3.org/2000/svg" xmlns:xlink="http://www.w3.org/1999/xlink" version="1.1"><rect x="0" y="0" width="900" height="600" fill="#ffffff"></rect><path d="M0 464L21.5 463C43 462 86 460 128.8 460.2C171.7 460.3 214.3 462.7 257.2 457.2C300 451.7 343 438.3 385.8 439.7C428.7 441 471.3 457 514.2 465.8C557 474.7 600 476.3 642.8 472.7C685.7 469 728.3 460 771.2 451.7C814 443.3 857 435.7 878.5 431.8L900 428L900 601L878.5 601C857 601 814 601 771.2 601C728.3 601 685.7 601 642.8 601C600 601 557 601 514.2 601C471.3 601 428.7 601 385.8 601C343 601 300 601 257.2 601C214.3 601 171.7 601 128.8 601C86 601 43 601 21.5 601L0 601Z" fill="#191c21"></path><path d="M0 480L21.5 488.3C43 496.7 86 513.3 128.8 521C171.7 528.7 214.3 527.3 257.2 521.7C300 516 343 506 385.8 500.8C428.7 495.7 471.3 495.3 514.2 495.8C557 496.3 600 497.7 642.8 500C685.7 502.3 728.3 505.7 771.2 498.8C814 492 857 475 878.5 466.5L900 458L900 601L878.5 601C857 601 814 601 771.2 601C728.3 601 685.7 601 642.8 601C600 601 557 601 514.2 601C471.3 601 428.7 601 385.8 601C343 601 300 601 257.2 601C214.3 601 171.7 601 128.8 601C86 601 43 601 21.5 601L0 601Z" fill="#262b32"></path><path d="M0 525L21.5 524.3C43 523.7 86 522.3 128.8 522.2C171.7 522 214.3 523 257.2 525.2C300 527.3 343 530.7 385.8 536.8C428.7 543 471.3 552 514.2 556.5C557 561 600 561 642.8 558.5C685.7 556 728.3 551 771.2 545.5C814 540 857 534 878.5 531L900 528L900 601L878.5 601C857 601 814 601 771.2 601C728.3 601 685.7 601 642.8 601C600 601 557 601 514.2 601C471.3 601 428.7 601 385.8 601C343 601 300 601 257.2 601C214.3 601 171.7 601 128.8 601C86 601 43 601 21.5 601L0 601Z" fill="#343b43"></path></svg>